<svg width="30" height="30" viewBox="0 0 30 30" fill="none" xmlns="http://www.w3.org/2000/svg">
    <path d="M15 25.0781C11.9326 25.0781 8.47324 24.3979 5.74629 23.2617C4.74609 22.8404 3.88945 22.159 3.18926 21.6211C3.15452 21.5945 3.11305 21.5782 3.06953 21.574C3.02601 21.5698 2.98217 21.5778 2.94298 21.5972C2.90378 21.6166 2.87079 21.6465 2.84773 21.6837C2.82467 21.7208 2.81247 21.7637 2.8125 21.8074V22.5445C2.8125 24.1893 4.18887 25.6629 6.68789 26.6941C8.92324 27.617 11.8752 28.125 15 28.125C18.1248 28.125 21.0762 27.617 23.3121 26.6941C25.8111 25.6641 27.1875 24.1893 27.1875 22.5445V21.8074C27.1875 21.7637 27.1753 21.7208 27.1523 21.6837C27.1292 21.6465 27.0962 21.6166 27.057 21.5972C27.0178 21.5778 26.974 21.5698 26.9305 21.574C26.8869 21.5782 26.8455 21.5945 26.8107 21.6211C26.1105 22.1584 25.2539 22.8404 24.2531 23.2617C21.5262 24.3979 18.0674 25.0781 15 25.0781ZM27.1875 7.4127C27.14 5.79258 25.7707 4.34238 23.3203 3.31992C21.0785 2.38828 18.1254 1.875 15 1.875C11.8746 1.875 8.92148 2.38828 6.68496 3.31992C4.23691 4.34004 2.86758 5.7873 2.81777 7.40332L2.8125 8.4375C2.8125 8.81309 3.11719 9.40312 3.66973 9.88652C4.32188 10.4566 5.28984 11.0191 6.46934 11.5113C8.97891 12.5602 12.1682 13.1836 15 13.1836C17.8318 13.1836 21.0211 12.5578 23.5307 11.509C24.7102 11.0168 25.6781 10.4543 26.3303 9.88418C26.8828 9.40371 27.1875 8.81367 27.1875 8.4375V7.4127Z" fill="#000"/>
    <path d="M24.2531 13.2422C21.5268 14.3807 18.0674 15.0586 15 15.0586C11.9326 15.0586 8.47326 14.3807 5.7463 13.2422C4.74611 12.8232 3.88947 12.1412 3.18927 11.6016C3.15438 11.5749 3.11269 11.5585 3.06896 11.5544C3.02522 11.5502 2.98121 11.5585 2.94193 11.5782C2.90265 11.5978 2.86969 11.6281 2.84681 11.6656C2.82393 11.7031 2.81204 11.7463 2.81251 11.7902V13.5937C2.81251 13.9693 3.1172 14.4422 3.66974 14.9256C4.32189 15.4963 5.28986 16.0582 6.46935 16.551C8.97892 17.598 12.1682 18.2227 15 18.2227C17.8319 18.2227 21.0211 17.5969 23.5307 16.5486C24.7102 16.0559 25.6781 15.4939 26.3303 14.9232C26.8828 14.4416 27.1875 13.9693 27.1875 13.5937V11.7902C27.1875 11.7465 27.1753 11.7036 27.1523 11.6665C27.1292 11.6293 27.0962 11.5994 27.057 11.58C27.0178 11.5606 26.974 11.5526 26.9305 11.5568C26.887 11.561 26.8455 11.5773 26.8108 11.6039C26.1106 12.1412 25.2539 12.8232 24.2531 13.2422Z" fill="#000"/>
    <path d="M24.2531 18.2812C21.5262 19.4185 18.0674 20.0976 15 20.0976C11.9326 20.0976 8.47325 19.4185 5.74629 18.2812C4.7461 17.8611 3.88946 17.1791 3.18926 16.6406C3.15445 16.614 3.11287 16.5977 3.06924 16.5935C3.02561 16.5893 2.98169 16.5974 2.94245 16.617C2.90321 16.6365 2.87024 16.6666 2.84727 16.7039C2.8243 16.7413 2.81225 16.7843 2.8125 16.8281V18.5742C2.8125 18.9498 3.11719 19.4221 3.66914 19.9049C4.32129 20.4756 5.28985 21.0375 6.46934 21.5303C8.97891 22.5773 12.1676 23.2031 15 23.2031C17.8324 23.2031 21.0211 22.5773 23.5307 21.5291C24.7102 21.0363 25.6781 20.4744 26.3303 19.9037C26.8828 19.4203 27.1875 18.9475 27.1875 18.5742V16.8281C27.1875 16.7844 27.1753 16.7415 27.1523 16.7044C27.1292 16.6672 27.0962 16.6373 27.057 16.6179C27.0178 16.5985 26.974 16.5905 26.9305 16.5947C26.8869 16.5989 26.8455 16.6152 26.8107 16.6418C26.1106 17.1791 25.2539 17.8611 24.2531 18.2812Z" fill="#000"/>
</svg>