<svg width="26" height="27" viewBox="0 0 26 27" fill="none" xmlns="http://www.w3.org/2000/svg">
    <path d="M22.8434 3.45851C22.7731 3.37765 22.6879 3.31255 22.5929 3.26714C22.498 3.22173 22.3952 3.19696 22.2908 3.19433C22.1864 3.19169 22.0826 3.21124 21.9857 3.2518C21.8887 3.29236 21.8006 3.35309 21.7267 3.43031L21.1318 4.05027C21.0597 4.12582 21.0192 4.22826 21.0192 4.33507C21.0192 4.44188 21.0597 4.54432 21.1318 4.61987L21.6772 5.18998C21.7129 5.22759 21.7554 5.25743 21.8022 5.2778C21.849 5.29816 21.8992 5.30865 21.9498 5.30865C22.0005 5.30865 22.0507 5.29816 22.0975 5.2778C22.1443 5.25743 22.1868 5.22759 22.2225 5.18998L22.8025 4.58562C23.0959 4.27892 23.1233 3.77932 22.8434 3.45851ZM19.929 5.30933L11.2476 14.3847C11.1949 14.4396 11.1567 14.5077 11.1365 14.5826L10.7349 15.8351C10.7253 15.8691 10.7246 15.9052 10.733 15.9395C10.7413 15.9739 10.7583 16.0053 10.7822 16.0303C10.8062 16.0554 10.8361 16.0732 10.8689 16.0819C10.9018 16.0907 10.9362 16.0899 10.9687 16.0799L12.1637 15.6593C12.2352 15.6382 12.3003 15.5981 12.3527 15.543L21.0188 6.45055C21.099 6.36569 21.1439 6.25113 21.1439 6.13176C21.1439 6.01238 21.099 5.89782 21.0188 5.81296L20.5403 5.30933C20.4592 5.22461 20.3492 5.17703 20.2347 5.17703C20.1201 5.17703 20.0102 5.22461 19.929 5.30933Z" fill="#000"/>
    <path d="M19.3038 10.5298L13.442 16.6806C13.2154 16.9185 12.937 17.0949 12.6307 17.1948L11.3851 17.6315C11.0895 17.7189 10.777 17.7222 10.4798 17.641C10.1825 17.5599 9.91136 17.3972 9.69416 17.1697C9.47696 16.9423 9.3216 16.6583 9.2441 16.347C9.16659 16.0357 9.16974 15.7085 9.25322 15.3989L9.67017 14.0945C9.76527 13.7739 9.93346 13.4823 10.1602 13.2449L16.0336 7.10519C16.0875 7.04887 16.1241 6.9771 16.139 6.89895C16.1539 6.8208 16.1463 6.73978 16.1173 6.66614C16.0882 6.5925 16.0389 6.52955 15.9756 6.48525C15.9124 6.44094 15.838 6.41727 15.7619 6.41724H5.72571C5.01145 6.41724 4.32645 6.71437 3.82139 7.24328C3.31633 7.77219 3.03259 8.48955 3.03259 9.23754V21.3246C3.03259 22.0725 3.31633 22.7899 3.82139 23.3188C4.32645 23.8477 5.01145 24.1449 5.72571 24.1449H17.2677C17.9819 24.1449 18.6669 23.8477 19.172 23.3188C19.677 22.7899 19.9608 22.0725 19.9608 21.3246V10.8144C19.9607 10.7347 19.9381 10.6568 19.8958 10.5906C19.8535 10.5243 19.7934 10.4727 19.7231 10.4423C19.6528 10.4118 19.5754 10.4039 19.5008 10.4195C19.4262 10.4351 19.3576 10.4735 19.3038 10.5298Z" fill="#000"/>
</svg>