<svg width="581" height="320" viewBox="0 0 581 320" fill="none" xmlns="http://www.w3.org/2000/svg">
    <!-- <rect x="0.5" y="0.5" width="580" height="319" rx="4.5" fill="#F7F9FC" fill-opacity="0.75" stroke="#D5D8E3"/> -->
    <line x1="54" y1="257.5" x2="554" y2="257.5" stroke="#D9DCE6"/>
    <path d="M34.0084 254.428H29.9884V256.816C30.1564 256.592 30.4044 256.404 30.7324 256.252C31.0684 256.1 31.4244 256.024 31.8004 256.024C32.4724 256.024 33.0164 256.168 33.4324 256.456C33.8564 256.744 34.1564 257.108 34.3324 257.548C34.5164 257.988 34.6084 258.452 34.6084 258.94C34.6084 259.532 34.4924 260.06 34.2604 260.524C34.0364 260.98 33.6964 261.34 33.2404 261.604C32.7924 261.868 32.2404 262 31.5844 262C30.7124 262 30.0124 261.784 29.4844 261.352C28.9564 260.92 28.6404 260.348 28.5364 259.636H29.8684C29.9564 260.012 30.1524 260.312 30.4564 260.536C30.7604 260.752 31.1404 260.86 31.5964 260.86C32.1644 260.86 32.5884 260.688 32.8684 260.344C33.1564 260 33.3004 259.544 33.3004 258.976C33.3004 258.4 33.1564 257.96 32.8684 257.656C32.5804 257.344 32.1564 257.188 31.5964 257.188C31.2044 257.188 30.8724 257.288 30.6004 257.488C30.3364 257.68 30.1444 257.944 30.0244 258.28H28.7284V253.228H34.0084V254.428ZM36.0325 257.512C36.0325 256.128 36.2645 255.048 36.7285 254.272C37.2005 253.488 38.0085 253.096 39.1525 253.096C40.2965 253.096 41.1005 253.488 41.5645 254.272C42.0365 255.048 42.2725 256.128 42.2725 257.512C42.2725 258.912 42.0365 260.008 41.5645 260.8C41.1005 261.584 40.2965 261.976 39.1525 261.976C38.0085 261.976 37.2005 261.584 36.7285 260.8C36.2645 260.008 36.0325 258.912 36.0325 257.512ZM40.9285 257.512C40.9285 256.864 40.8845 256.316 40.7965 255.868C40.7165 255.42 40.5485 255.056 40.2925 254.776C40.0365 254.488 39.6565 254.344 39.1525 254.344C38.6485 254.344 38.2685 254.488 38.0125 254.776C37.7565 255.056 37.5845 255.42 37.4965 255.868C37.4165 256.316 37.3765 256.864 37.3765 257.512C37.3765 258.184 37.4165 258.748 37.4965 259.204C37.5765 259.66 37.7445 260.028 38.0005 260.308C38.2645 260.588 38.6485 260.728 39.1525 260.728C39.6565 260.728 40.0365 260.588 40.2925 260.308C40.5565 260.028 40.7285 259.66 40.8085 259.204C40.8885 258.748 40.9285 258.184 40.9285 257.512Z" fill="#999DA9"/>
    <line x1="54" y1="224.5" x2="554" y2="224.5" stroke="#D9DCE6"/>
    <path d="M22.1752 227.14C22.9432 226.476 23.5472 225.932 23.9872 225.508C24.4352 225.076 24.8072 224.628 25.1032 224.164C25.3992 223.7 25.5472 223.236 25.5472 222.772C25.5472 222.292 25.4312 221.916 25.1992 221.644C24.9752 221.372 24.6192 221.236 24.1312 221.236C23.6592 221.236 23.2912 221.388 23.0272 221.692C22.7712 221.988 22.6352 222.388 22.6192 222.892H21.2992C21.3232 221.98 21.5952 221.284 22.1152 220.804C22.6432 220.316 23.3112 220.072 24.1192 220.072C24.9912 220.072 25.6712 220.312 26.1592 220.792C26.6552 221.272 26.9032 221.912 26.9032 222.712C26.9032 223.288 26.7552 223.844 26.4592 224.38C26.1712 224.908 25.8232 225.384 25.4152 225.808C25.0152 226.224 24.5032 226.708 23.8792 227.26L23.3392 227.74H27.1432V228.88H21.3112V227.884L22.1752 227.14ZM28.345 224.512C28.345 223.128 28.577 222.048 29.041 221.272C29.513 220.488 30.321 220.096 31.465 220.096C32.609 220.096 33.413 220.488 33.877 221.272C34.349 222.048 34.585 223.128 34.585 224.512C34.585 225.912 34.349 227.008 33.877 227.8C33.413 228.584 32.609 228.976 31.465 228.976C30.321 228.976 29.513 228.584 29.041 227.8C28.577 227.008 28.345 225.912 28.345 224.512ZM33.241 224.512C33.241 223.864 33.197 223.316 33.109 222.868C33.029 222.42 32.861 222.056 32.605 221.776C32.349 221.488 31.969 221.344 31.465 221.344C30.961 221.344 30.581 221.488 30.325 221.776C30.069 222.056 29.897 222.42 29.809 222.868C29.729 223.316 29.689 223.864 29.689 224.512C29.689 225.184 29.729 225.748 29.809 226.204C29.889 226.66 30.057 227.028 30.313 227.308C30.577 227.588 30.961 227.728 31.465 227.728C31.969 227.728 32.349 227.588 32.605 227.308C32.869 227.028 33.041 226.66 33.121 226.204C33.201 225.748 33.241 225.184 33.241 224.512ZM36.0325 224.512C36.0325 223.128 36.2645 222.048 36.7285 221.272C37.2005 220.488 38.0085 220.096 39.1525 220.096C40.2965 220.096 41.1005 220.488 41.5645 221.272C42.0365 222.048 42.2725 223.128 42.2725 224.512C42.2725 225.912 42.0365 227.008 41.5645 227.8C41.1005 228.584 40.2965 228.976 39.1525 228.976C38.0085 228.976 37.2005 228.584 36.7285 227.8C36.2645 227.008 36.0325 225.912 36.0325 224.512ZM40.9285 224.512C40.9285 223.864 40.8845 223.316 40.7965 222.868C40.7165 222.42 40.5485 222.056 40.2925 221.776C40.0365 221.488 39.6565 221.344 39.1525 221.344C38.6485 221.344 38.2685 221.488 38.0125 221.776C37.7565 222.056 37.5845 222.42 37.4965 222.868C37.4165 223.316 37.3765 223.864 37.3765 224.512C37.3765 225.184 37.4165 225.748 37.4965 226.204C37.5765 226.66 37.7445 227.028 38.0005 227.308C38.2645 227.588 38.6485 227.728 39.1525 227.728C39.6565 227.728 40.0365 227.588 40.2925 227.308C40.5565 227.028 40.7285 226.66 40.8085 226.204C40.8885 225.748 40.9285 225.184 40.9285 224.512Z" fill="#999DA9"/>
    <line x1="54" y1="191.5" x2="554" y2="191.5" stroke="#D9DCE6"/>
    <path d="M21.196 189.412C21.244 188.668 21.528 188.088 22.048 187.672C22.576 187.256 23.248 187.048 24.064 187.048C24.624 187.048 25.108 187.148 25.516 187.348C25.924 187.548 26.232 187.82 26.44 188.164C26.648 188.508 26.752 188.896 26.752 189.328C26.752 189.824 26.62 190.248 26.356 190.6C26.092 190.952 25.776 191.188 25.408 191.308V191.356C25.88 191.5 26.248 191.764 26.512 192.148C26.776 192.524 26.908 193.008 26.908 193.6C26.908 194.072 26.8 194.492 26.584 194.86C26.368 195.228 26.048 195.52 25.624 195.736C25.2 195.944 24.692 196.048 24.1 196.048C23.236 196.048 22.524 195.828 21.964 195.388C21.412 194.94 21.116 194.3 21.076 193.468H22.396C22.428 193.892 22.592 194.24 22.888 194.512C23.184 194.776 23.584 194.908 24.088 194.908C24.576 194.908 24.952 194.776 25.216 194.512C25.48 194.24 25.612 193.892 25.612 193.468C25.612 192.908 25.432 192.512 25.072 192.28C24.72 192.04 24.176 191.92 23.44 191.92H23.128V190.792H23.452C24.1 190.784 24.592 190.676 24.928 190.468C25.272 190.26 25.444 189.932 25.444 189.484C25.444 189.1 25.32 188.796 25.072 188.572C24.824 188.34 24.472 188.224 24.016 188.224C23.568 188.224 23.22 188.34 22.972 188.572C22.724 188.796 22.576 189.076 22.528 189.412H21.196ZM28.345 191.512C28.345 190.128 28.577 189.048 29.041 188.272C29.513 187.488 30.321 187.096 31.465 187.096C32.609 187.096 33.413 187.488 33.877 188.272C34.349 189.048 34.585 190.128 34.585 191.512C34.585 192.912 34.349 194.008 33.877 194.8C33.413 195.584 32.609 195.976 31.465 195.976C30.321 195.976 29.513 195.584 29.041 194.8C28.577 194.008 28.345 192.912 28.345 191.512ZM33.241 191.512C33.241 190.864 33.197 190.316 33.109 189.868C33.029 189.42 32.861 189.056 32.605 188.776C32.349 188.488 31.969 188.344 31.465 188.344C30.961 188.344 30.581 188.488 30.325 188.776C30.069 189.056 29.897 189.42 29.809 189.868C29.729 190.316 29.689 190.864 29.689 191.512C29.689 192.184 29.729 192.748 29.809 193.204C29.889 193.66 30.057 194.028 30.313 194.308C30.577 194.588 30.961 194.728 31.465 194.728C31.969 194.728 32.349 194.588 32.605 194.308C32.869 194.028 33.041 193.66 33.121 193.204C33.201 192.748 33.241 192.184 33.241 191.512ZM36.0325 191.512C36.0325 190.128 36.2645 189.048 36.7285 188.272C37.2005 187.488 38.0085 187.096 39.1525 187.096C40.2965 187.096 41.1005 187.488 41.5645 188.272C42.0365 189.048 42.2725 190.128 42.2725 191.512C42.2725 192.912 42.0365 194.008 41.5645 194.8C41.1005 195.584 40.2965 195.976 39.1525 195.976C38.0085 195.976 37.2005 195.584 36.7285 194.8C36.2645 194.008 36.0325 192.912 36.0325 191.512ZM40.9285 191.512C40.9285 190.864 40.8845 190.316 40.7965 189.868C40.7165 189.42 40.5485 189.056 40.2925 188.776C40.0365 188.488 39.6565 188.344 39.1525 188.344C38.6485 188.344 38.2685 188.488 38.0125 188.776C37.7565 189.056 37.5845 189.42 37.4965 189.868C37.4165 190.316 37.3765 190.864 37.3765 191.512C37.3765 192.184 37.4165 192.748 37.4965 193.204C37.5765 193.66 37.7445 194.028 38.0005 194.308C38.2645 194.588 38.6485 194.728 39.1525 194.728C39.6565 194.728 40.0365 194.588 40.2925 194.308C40.5565 194.028 40.7285 193.66 40.8085 193.204C40.8885 192.748 40.9285 192.184 40.9285 191.512Z" fill="#999DA9"/>
    <line x1="54" y1="158.5" x2="554" y2="158.5" stroke="#D9DCE6"/>
    <path d="M20.4075 161.176V160.144L24.4395 154.36H26.0955V159.988H27.2115V161.176H26.0955V163H24.7515V161.176H20.4075ZM24.8115 155.752L21.9795 159.988H24.8115V155.752ZM28.345 158.512C28.345 157.128 28.577 156.048 29.041 155.272C29.513 154.488 30.321 154.096 31.465 154.096C32.609 154.096 33.413 154.488 33.877 155.272C34.349 156.048 34.585 157.128 34.585 158.512C34.585 159.912 34.349 161.008 33.877 161.8C33.413 162.584 32.609 162.976 31.465 162.976C30.321 162.976 29.513 162.584 29.041 161.8C28.577 161.008 28.345 159.912 28.345 158.512ZM33.241 158.512C33.241 157.864 33.197 157.316 33.109 156.868C33.029 156.42 32.861 156.056 32.605 155.776C32.349 155.488 31.969 155.344 31.465 155.344C30.961 155.344 30.581 155.488 30.325 155.776C30.069 156.056 29.897 156.42 29.809 156.868C29.729 157.316 29.689 157.864 29.689 158.512C29.689 159.184 29.729 159.748 29.809 160.204C29.889 160.66 30.057 161.028 30.313 161.308C30.577 161.588 30.961 161.728 31.465 161.728C31.969 161.728 32.349 161.588 32.605 161.308C32.869 161.028 33.041 160.66 33.121 160.204C33.201 159.748 33.241 159.184 33.241 158.512ZM36.0325 158.512C36.0325 157.128 36.2645 156.048 36.7285 155.272C37.2005 154.488 38.0085 154.096 39.1525 154.096C40.2965 154.096 41.1005 154.488 41.5645 155.272C42.0365 156.048 42.2725 157.128 42.2725 158.512C42.2725 159.912 42.0365 161.008 41.5645 161.8C41.1005 162.584 40.2965 162.976 39.1525 162.976C38.0085 162.976 37.2005 162.584 36.7285 161.8C36.2645 161.008 36.0325 159.912 36.0325 158.512ZM40.9285 158.512C40.9285 157.864 40.8845 157.316 40.7965 156.868C40.7165 156.42 40.5485 156.056 40.2925 155.776C40.0365 155.488 39.6565 155.344 39.1525 155.344C38.6485 155.344 38.2685 155.488 38.0125 155.776C37.7565 156.056 37.5845 156.42 37.4965 156.868C37.4165 157.316 37.3765 157.864 37.3765 158.512C37.3765 159.184 37.4165 159.748 37.4965 160.204C37.5765 160.66 37.7445 161.028 38.0005 161.308C38.2645 161.588 38.6485 161.728 39.1525 161.728C39.6565 161.728 40.0365 161.588 40.2925 161.308C40.5565 161.028 40.7285 160.66 40.8085 160.204C40.8885 159.748 40.9285 159.184 40.9285 158.512Z" fill="#999DA9"/>
    <line x1="54" y1="125.5" x2="554" y2="125.5" stroke="#D9DCE6"/>
    <path d="M26.3209 122.428H22.3009V124.816C22.4689 124.592 22.7169 124.404 23.0449 124.252C23.3809 124.1 23.7369 124.024 24.1129 124.024C24.7849 124.024 25.3289 124.168 25.7449 124.456C26.1689 124.744 26.4689 125.108 26.6449 125.548C26.8289 125.988 26.9209 126.452 26.9209 126.94C26.9209 127.532 26.8049 128.06 26.5729 128.524C26.3489 128.98 26.0089 129.34 25.5529 129.604C25.1049 129.868 24.5529 130 23.8969 130C23.0249 130 22.3249 129.784 21.7969 129.352C21.2689 128.92 20.9529 128.348 20.8489 127.636H22.1809C22.2689 128.012 22.4649 128.312 22.7689 128.536C23.0729 128.752 23.4529 128.86 23.9089 128.86C24.4769 128.86 24.9009 128.688 25.1809 128.344C25.4689 128 25.6129 127.544 25.6129 126.976C25.6129 126.4 25.4689 125.96 25.1809 125.656C24.8929 125.344 24.4689 125.188 23.9089 125.188C23.5169 125.188 23.1849 125.288 22.9129 125.488C22.6489 125.68 22.4569 125.944 22.3369 126.28H21.0409V121.228H26.3209V122.428ZM28.345 125.512C28.345 124.128 28.577 123.048 29.041 122.272C29.513 121.488 30.321 121.096 31.465 121.096C32.609 121.096 33.413 121.488 33.877 122.272C34.349 123.048 34.585 124.128 34.585 125.512C34.585 126.912 34.349 128.008 33.877 128.8C33.413 129.584 32.609 129.976 31.465 129.976C30.321 129.976 29.513 129.584 29.041 128.8C28.577 128.008 28.345 126.912 28.345 125.512ZM33.241 125.512C33.241 124.864 33.197 124.316 33.109 123.868C33.029 123.42 32.861 123.056 32.605 122.776C32.349 122.488 31.969 122.344 31.465 122.344C30.961 122.344 30.581 122.488 30.325 122.776C30.069 123.056 29.897 123.42 29.809 123.868C29.729 124.316 29.689 124.864 29.689 125.512C29.689 126.184 29.729 126.748 29.809 127.204C29.889 127.66 30.057 128.028 30.313 128.308C30.577 128.588 30.961 128.728 31.465 128.728C31.969 128.728 32.349 128.588 32.605 128.308C32.869 128.028 33.041 127.66 33.121 127.204C33.201 126.748 33.241 126.184 33.241 125.512ZM36.0325 125.512C36.0325 124.128 36.2645 123.048 36.7285 122.272C37.2005 121.488 38.0085 121.096 39.1525 121.096C40.2965 121.096 41.1005 121.488 41.5645 122.272C42.0365 123.048 42.2725 124.128 42.2725 125.512C42.2725 126.912 42.0365 128.008 41.5645 128.8C41.1005 129.584 40.2965 129.976 39.1525 129.976C38.0085 129.976 37.2005 129.584 36.7285 128.8C36.2645 128.008 36.0325 126.912 36.0325 125.512ZM40.9285 125.512C40.9285 124.864 40.8845 124.316 40.7965 123.868C40.7165 123.42 40.5485 123.056 40.2925 122.776C40.0365 122.488 39.6565 122.344 39.1525 122.344C38.6485 122.344 38.2685 122.488 38.0125 122.776C37.7565 123.056 37.5845 123.42 37.4965 123.868C37.4165 124.316 37.3765 124.864 37.3765 125.512C37.3765 126.184 37.4165 126.748 37.4965 127.204C37.5765 127.66 37.7445 128.028 38.0005 128.308C38.2645 128.588 38.6485 128.728 39.1525 128.728C39.6565 128.728 40.0365 128.588 40.2925 128.308C40.5565 128.028 40.7285 127.66 40.8085 127.204C40.8885 126.748 40.9285 126.184 40.9285 125.512Z" fill="#999DA9"/>
    <line x1="54" y1="92.5" x2="554" y2="92.5" stroke="#D9DCE6"/>
    <path d="M27.1976 89.308L23.8616 97H22.4816L25.8536 89.452H21.4136V88.288H27.1976V89.308ZM34.0084 89.428H29.9884V91.816C30.1564 91.592 30.4044 91.404 30.7324 91.252C31.0684 91.1 31.4244 91.024 31.8004 91.024C32.4724 91.024 33.0164 91.168 33.4324 91.456C33.8564 91.744 34.1564 92.108 34.3324 92.548C34.5164 92.988 34.6084 93.452 34.6084 93.94C34.6084 94.532 34.4924 95.06 34.2604 95.524C34.0364 95.98 33.6964 96.34 33.2404 96.604C32.7924 96.868 32.2404 97 31.5844 97C30.7124 97 30.0124 96.784 29.4844 96.352C28.9564 95.92 28.6404 95.348 28.5364 94.636H29.8684C29.9564 95.012 30.1524 95.312 30.4564 95.536C30.7604 95.752 31.1404 95.86 31.5964 95.86C32.1644 95.86 32.5884 95.688 32.8684 95.344C33.1564 95 33.3004 94.544 33.3004 93.976C33.3004 93.4 33.1564 92.96 32.8684 92.656C32.5804 92.344 32.1564 92.188 31.5964 92.188C31.2044 92.188 30.8724 92.288 30.6004 92.488C30.3364 92.68 30.1444 92.944 30.0244 93.28H28.7284V88.228H34.0084V89.428ZM36.0325 92.512C36.0325 91.128 36.2645 90.048 36.7285 89.272C37.2005 88.488 38.0085 88.096 39.1525 88.096C40.2965 88.096 41.1005 88.488 41.5645 89.272C42.0365 90.048 42.2725 91.128 42.2725 92.512C42.2725 93.912 42.0365 95.008 41.5645 95.8C41.1005 96.584 40.2965 96.976 39.1525 96.976C38.0085 96.976 37.2005 96.584 36.7285 95.8C36.2645 95.008 36.0325 93.912 36.0325 92.512ZM40.9285 92.512C40.9285 91.864 40.8845 91.316 40.7965 90.868C40.7165 90.42 40.5485 90.056 40.2925 89.776C40.0365 89.488 39.6565 89.344 39.1525 89.344C38.6485 89.344 38.2685 89.488 38.0125 89.776C37.7565 90.056 37.5845 90.42 37.4965 90.868C37.4165 91.316 37.3765 91.864 37.3765 92.512C37.3765 93.184 37.4165 93.748 37.4965 94.204C37.5765 94.66 37.7445 95.028 38.0005 95.308C38.2645 95.588 38.6485 95.728 39.1525 95.728C39.6565 95.728 40.0365 95.588 40.2925 95.308C40.5565 95.028 40.7285 94.66 40.8085 94.204C40.8885 93.748 40.9285 93.184 40.9285 92.512Z" fill="#999DA9"/>
    <line x1="54" y1="59.5" x2="554" y2="59.5" stroke="#D9DCE6"/>
    <path d="M32.7002 56.5V55.252H35.1962V64H33.8162V56.5H32.7002ZM39.8715 60.7L42.9195 64H41.0715L38.6235 61.156V64H37.2555V55.12H38.6235V60.28L41.0235 57.388H42.9195L39.8715 60.7Z" fill="#999DA9"/>
    <line x1="53" y1="26.5" x2="553" y2="26.5" stroke="#D9DCE6"/>
    <path d="M21.1416 23.5V22.252H23.6376V31H22.2576V23.5H21.1416ZM26.2489 31.084C26.0009 31.084 25.7929 31 25.6249 30.832C25.4569 30.664 25.3729 30.456 25.3729 30.208C25.3729 29.96 25.4569 29.752 25.6249 29.584C25.7929 29.416 26.0009 29.332 26.2489 29.332C26.4889 29.332 26.6929 29.416 26.8609 29.584C27.0289 29.752 27.1129 29.96 27.1129 30.208C27.1129 30.456 27.0289 30.664 26.8609 30.832C26.6929 31 26.4889 31.084 26.2489 31.084ZM34.0514 23.428H30.0314V25.816C30.1994 25.592 30.4474 25.404 30.7754 25.252C31.1114 25.1 31.4674 25.024 31.8434 25.024C32.5154 25.024 33.0594 25.168 33.4754 25.456C33.8994 25.744 34.1994 26.108 34.3754 26.548C34.5594 26.988 34.6514 27.452 34.6514 27.94C34.6514 28.532 34.5354 29.06 34.3034 29.524C34.0794 29.98 33.7394 30.34 33.2834 30.604C32.8354 30.868 32.2834 31 31.6274 31C30.7554 31 30.0554 30.784 29.5274 30.352C28.9994 29.92 28.6834 29.348 28.5794 28.636H29.9114C29.9994 29.012 30.1954 29.312 30.4994 29.536C30.8034 29.752 31.1834 29.86 31.6394 29.86C32.2074 29.86 32.6314 29.688 32.9114 29.344C33.1994 29 33.3434 28.544 33.3434 27.976C33.3434 27.4 33.1994 26.96 32.9114 26.656C32.6234 26.344 32.1994 26.188 31.6394 26.188C31.2474 26.188 30.9154 26.288 30.6434 26.488C30.3794 26.68 30.1874 26.944 30.0674 27.28H28.7714V22.228H34.0514V23.428ZM38.8715 27.7L41.9195 31H40.0715L37.6235 28.156V31H36.2555V22.12H37.6235V27.28L40.0235 24.388H41.9195L38.8715 27.7Z" fill="#999DA9"/>
    <path d="M71.54 287.5V286.252H74.036V295H72.656V287.5H71.54ZM87.9965 286.66V295H86.6285V289.288L84.0845 295H83.1365L80.5805 289.288V295H79.2125V286.66H80.6885L83.6165 293.2L86.5325 286.66H87.9965ZM89.3385 291.664C89.3385 291 89.4745 290.412 89.7465 289.9C90.0265 289.388 90.4025 288.992 90.8745 288.712C91.3545 288.424 91.8825 288.28 92.4585 288.28C92.9785 288.28 93.4305 288.384 93.8145 288.592C94.2065 288.792 94.5185 289.044 94.7505 289.348V288.388H96.1305V295H94.7505V294.016C94.5185 294.328 94.2025 294.588 93.8025 294.796C93.4025 295.004 92.9465 295.108 92.4345 295.108C91.8665 295.108 91.3465 294.964 90.8745 294.676C90.4025 294.38 90.0265 293.972 89.7465 293.452C89.4745 292.924 89.3385 292.328 89.3385 291.664ZM94.7505 291.688C94.7505 291.232 94.6545 290.836 94.4625 290.5C94.2785 290.164 94.0345 289.908 93.7305 289.732C93.4265 289.556 93.0985 289.468 92.7465 289.468C92.3945 289.468 92.0665 289.556 91.7625 289.732C91.4585 289.9 91.2105 290.152 91.0185 290.488C90.8345 290.816 90.7425 291.208 90.7425 291.664C90.7425 292.12 90.8345 292.52 91.0185 292.864C91.2105 293.208 91.4585 293.472 91.7625 293.656C92.0745 293.832 92.4025 293.92 92.7465 293.92C93.0985 293.92 93.4265 293.832 93.7305 293.656C94.0345 293.48 94.2785 293.224 94.4625 292.888C94.6545 292.544 94.7505 292.144 94.7505 291.688ZM103.879 288.388L99.8233 298.108H98.4073L99.7513 294.892L97.1473 288.388H98.6713L100.531 293.428L102.463 288.388H103.879Z" fill="#999DA9"/>
    <path d="M141.36 287.428H137.34V289.816C137.508 289.592 137.756 289.404 138.084 289.252C138.42 289.1 138.776 289.024 139.152 289.024C139.824 289.024 140.368 289.168 140.784 289.456C141.208 289.744 141.508 290.108 141.684 290.548C141.868 290.988 141.96 291.452 141.96 291.94C141.96 292.532 141.844 293.06 141.612 293.524C141.388 293.98 141.048 294.34 140.592 294.604C140.144 294.868 139.592 295 138.936 295C138.064 295 137.364 294.784 136.836 294.352C136.308 293.92 135.992 293.348 135.888 292.636H137.22C137.308 293.012 137.504 293.312 137.808 293.536C138.112 293.752 138.492 293.86 138.948 293.86C139.516 293.86 139.94 293.688 140.22 293.344C140.508 293 140.652 292.544 140.652 291.976C140.652 291.4 140.508 290.96 140.22 290.656C139.932 290.344 139.508 290.188 138.948 290.188C138.556 290.188 138.224 290.288 137.952 290.488C137.688 290.68 137.496 290.944 137.376 291.28H136.08V286.228H141.36V287.428ZM155.465 286.66V295H154.097V289.288L151.553 295H150.605L148.049 289.288V295H146.681V286.66H148.157L151.085 293.2L154.001 286.66H155.465ZM156.807 291.664C156.807 291 156.943 290.412 157.215 289.9C157.495 289.388 157.871 288.992 158.343 288.712C158.823 288.424 159.351 288.28 159.927 288.28C160.447 288.28 160.899 288.384 161.283 288.592C161.675 288.792 161.987 289.044 162.219 289.348V288.388H163.599V295H162.219V294.016C161.987 294.328 161.671 294.588 161.271 294.796C160.871 295.004 160.415 295.108 159.903 295.108C159.335 295.108 158.815 294.964 158.343 294.676C157.871 294.38 157.495 293.972 157.215 293.452C156.943 292.924 156.807 292.328 156.807 291.664ZM162.219 291.688C162.219 291.232 162.123 290.836 161.931 290.5C161.747 290.164 161.503 289.908 161.199 289.732C160.895 289.556 160.567 289.468 160.215 289.468C159.863 289.468 159.535 289.556 159.231 289.732C158.927 289.9 158.679 290.152 158.487 290.488C158.303 290.816 158.211 291.208 158.211 291.664C158.211 292.12 158.303 292.52 158.487 292.864C158.679 293.208 158.927 293.472 159.231 293.656C159.543 293.832 159.871 293.92 160.215 293.92C160.567 293.92 160.895 293.832 161.199 293.656C161.503 293.48 161.747 293.224 161.931 292.888C162.123 292.544 162.219 292.144 162.219 291.688ZM171.348 288.388L167.292 298.108H165.876L167.22 294.892L164.616 288.388H166.14L168 293.428L169.932 288.388H171.348Z" fill="#999DA9"/>
    <path d="M202.54 287.5V286.252H205.036V295H203.656V287.5H202.54ZM206.915 290.512C206.915 289.128 207.147 288.048 207.611 287.272C208.083 286.488 208.891 286.096 210.035 286.096C211.179 286.096 211.983 286.488 212.447 287.272C212.919 288.048 213.155 289.128 213.155 290.512C213.155 291.912 212.919 293.008 212.447 293.8C211.983 294.584 211.179 294.976 210.035 294.976C208.891 294.976 208.083 294.584 207.611 293.8C207.147 293.008 206.915 291.912 206.915 290.512ZM211.811 290.512C211.811 289.864 211.767 289.316 211.679 288.868C211.599 288.42 211.431 288.056 211.175 287.776C210.919 287.488 210.539 287.344 210.035 287.344C209.531 287.344 209.151 287.488 208.895 287.776C208.639 288.056 208.467 288.42 208.379 288.868C208.299 289.316 208.259 289.864 208.259 290.512C208.259 291.184 208.299 291.748 208.379 292.204C208.459 292.66 208.627 293.028 208.883 293.308C209.147 293.588 209.531 293.728 210.035 293.728C210.539 293.728 210.919 293.588 211.175 293.308C211.439 293.028 211.611 292.66 211.691 292.204C211.771 291.748 211.811 291.184 211.811 290.512ZM226.684 286.66V295H225.316V289.288L222.772 295H221.824L219.268 289.288V295H217.9V286.66H219.376L222.304 293.2L225.22 286.66H226.684ZM228.026 291.664C228.026 291 228.162 290.412 228.434 289.9C228.714 289.388 229.09 288.992 229.562 288.712C230.042 288.424 230.57 288.28 231.146 288.28C231.666 288.28 232.118 288.384 232.502 288.592C232.894 288.792 233.206 289.044 233.438 289.348V288.388H234.818V295H233.438V294.016C233.206 294.328 232.89 294.588 232.49 294.796C232.09 295.004 231.634 295.108 231.122 295.108C230.554 295.108 230.034 294.964 229.562 294.676C229.09 294.38 228.714 293.972 228.434 293.452C228.162 292.924 228.026 292.328 228.026 291.664ZM233.438 291.688C233.438 291.232 233.342 290.836 233.15 290.5C232.966 290.164 232.722 289.908 232.418 289.732C232.114 289.556 231.786 289.468 231.434 289.468C231.082 289.468 230.754 289.556 230.45 289.732C230.146 289.9 229.898 290.152 229.706 290.488C229.522 290.816 229.43 291.208 229.43 291.664C229.43 292.12 229.522 292.52 229.706 292.864C229.898 293.208 230.146 293.472 230.45 293.656C230.762 293.832 231.09 293.92 231.434 293.92C231.786 293.92 232.114 293.832 232.418 293.656C232.722 293.48 232.966 293.224 233.15 292.888C233.342 292.544 233.438 292.144 233.438 291.688ZM242.567 288.388L238.511 298.108H237.095L238.439 294.892L235.835 288.388H237.359L239.219 293.428L241.151 288.388H242.567Z" fill="#999DA9"/>
    <path d="M273.54 287.5V286.252H276.036V295H274.656V287.5H273.54ZM283.555 287.428H279.535V289.816C279.703 289.592 279.951 289.404 280.279 289.252C280.615 289.1 280.971 289.024 281.347 289.024C282.019 289.024 282.563 289.168 282.979 289.456C283.403 289.744 283.703 290.108 283.879 290.548C284.063 290.988 284.155 291.452 284.155 291.94C284.155 292.532 284.039 293.06 283.807 293.524C283.583 293.98 283.243 294.34 282.787 294.604C282.339 294.868 281.787 295 281.131 295C280.259 295 279.559 294.784 279.031 294.352C278.503 293.92 278.187 293.348 278.083 292.636H279.415C279.503 293.012 279.699 293.312 280.003 293.536C280.307 293.752 280.687 293.86 281.143 293.86C281.711 293.86 282.135 293.688 282.415 293.344C282.703 293 282.847 292.544 282.847 291.976C282.847 291.4 282.703 290.96 282.415 290.656C282.127 290.344 281.703 290.188 281.143 290.188C280.751 290.188 280.419 290.288 280.147 290.488C279.883 290.68 279.691 290.944 279.571 291.28H278.275V286.228H283.555V287.428ZM297.661 286.66V295H296.293V289.288L293.749 295H292.801L290.245 289.288V295H288.877V286.66H290.353L293.281 293.2L296.197 286.66H297.661ZM299.003 291.664C299.003 291 299.139 290.412 299.411 289.9C299.691 289.388 300.067 288.992 300.539 288.712C301.019 288.424 301.547 288.28 302.123 288.28C302.643 288.28 303.095 288.384 303.479 288.592C303.871 288.792 304.183 289.044 304.415 289.348V288.388H305.795V295H304.415V294.016C304.183 294.328 303.867 294.588 303.467 294.796C303.067 295.004 302.611 295.108 302.099 295.108C301.531 295.108 301.011 294.964 300.539 294.676C300.067 294.38 299.691 293.972 299.411 293.452C299.139 292.924 299.003 292.328 299.003 291.664ZM304.415 291.688C304.415 291.232 304.319 290.836 304.127 290.5C303.943 290.164 303.699 289.908 303.395 289.732C303.091 289.556 302.763 289.468 302.411 289.468C302.059 289.468 301.731 289.556 301.427 289.732C301.123 289.9 300.875 290.152 300.683 290.488C300.499 290.816 300.407 291.208 300.407 291.664C300.407 292.12 300.499 292.52 300.683 292.864C300.875 293.208 301.123 293.472 301.427 293.656C301.739 293.832 302.067 293.92 302.411 293.92C302.763 293.92 303.091 293.832 303.395 293.656C303.699 293.48 303.943 293.224 304.127 292.888C304.319 292.544 304.415 292.144 304.415 291.688ZM313.543 288.388L309.487 298.108H308.071L309.415 294.892L306.811 288.388H308.335L310.195 293.428L312.127 288.388H313.543Z" fill="#999DA9"/>
    <path d="M345.476 293.14C346.244 292.476 346.848 291.932 347.288 291.508C347.736 291.076 348.108 290.628 348.404 290.164C348.7 289.7 348.848 289.236 348.848 288.772C348.848 288.292 348.732 287.916 348.5 287.644C348.276 287.372 347.92 287.236 347.432 287.236C346.96 287.236 346.592 287.388 346.328 287.692C346.072 287.988 345.936 288.388 345.92 288.892H344.6C344.624 287.98 344.896 287.284 345.416 286.804C345.944 286.316 346.612 286.072 347.42 286.072C348.292 286.072 348.972 286.312 349.46 286.792C349.956 287.272 350.204 287.912 350.204 288.712C350.204 289.288 350.056 289.844 349.76 290.38C349.472 290.908 349.124 291.384 348.716 291.808C348.316 292.224 347.804 292.708 347.18 293.26L346.64 293.74H350.444V294.88H344.612V293.884L345.476 293.14ZM351.646 290.512C351.646 289.128 351.878 288.048 352.342 287.272C352.814 286.488 353.622 286.096 354.766 286.096C355.91 286.096 356.714 286.488 357.178 287.272C357.65 288.048 357.886 289.128 357.886 290.512C357.886 291.912 357.65 293.008 357.178 293.8C356.714 294.584 355.91 294.976 354.766 294.976C353.622 294.976 352.814 294.584 352.342 293.8C351.878 293.008 351.646 291.912 351.646 290.512ZM356.542 290.512C356.542 289.864 356.498 289.316 356.41 288.868C356.33 288.42 356.162 288.056 355.906 287.776C355.65 287.488 355.27 287.344 354.766 287.344C354.262 287.344 353.882 287.488 353.626 287.776C353.37 288.056 353.198 288.42 353.11 288.868C353.03 289.316 352.99 289.864 352.99 290.512C352.99 291.184 353.03 291.748 353.11 292.204C353.19 292.66 353.358 293.028 353.614 293.308C353.878 293.588 354.262 293.728 354.766 293.728C355.27 293.728 355.65 293.588 355.906 293.308C356.17 293.028 356.342 292.66 356.422 292.204C356.502 291.748 356.542 291.184 356.542 290.512ZM371.414 286.66V295H370.046V289.288L367.502 295H366.554L363.998 289.288V295H362.63V286.66H364.106L367.034 293.2L369.95 286.66H371.414ZM372.757 291.664C372.757 291 372.893 290.412 373.165 289.9C373.445 289.388 373.821 288.992 374.293 288.712C374.773 288.424 375.301 288.28 375.877 288.28C376.397 288.28 376.849 288.384 377.233 288.592C377.625 288.792 377.937 289.044 378.169 289.348V288.388H379.549V295H378.169V294.016C377.937 294.328 377.621 294.588 377.221 294.796C376.821 295.004 376.365 295.108 375.853 295.108C375.285 295.108 374.765 294.964 374.293 294.676C373.821 294.38 373.445 293.972 373.165 293.452C372.893 292.924 372.757 292.328 372.757 291.664ZM378.169 291.688C378.169 291.232 378.073 290.836 377.881 290.5C377.697 290.164 377.453 289.908 377.149 289.732C376.845 289.556 376.517 289.468 376.165 289.468C375.813 289.468 375.485 289.556 375.181 289.732C374.877 289.9 374.629 290.152 374.437 290.488C374.253 290.816 374.161 291.208 374.161 291.664C374.161 292.12 374.253 292.52 374.437 292.864C374.629 293.208 374.877 293.472 375.181 293.656C375.493 293.832 375.821 293.92 376.165 293.92C376.517 293.92 376.845 293.832 377.149 293.656C377.453 293.48 377.697 293.224 377.881 292.888C378.073 292.544 378.169 292.144 378.169 291.688ZM387.297 288.388L383.241 298.108H381.825L383.169 294.892L380.565 288.388H382.089L383.949 293.428L385.881 288.388H387.297Z" fill="#999DA9"/>
    <path d="M419.476 293.14C420.244 292.476 420.848 291.932 421.288 291.508C421.736 291.076 422.108 290.628 422.404 290.164C422.7 289.7 422.848 289.236 422.848 288.772C422.848 288.292 422.732 287.916 422.5 287.644C422.276 287.372 421.92 287.236 421.432 287.236C420.96 287.236 420.592 287.388 420.328 287.692C420.072 287.988 419.936 288.388 419.92 288.892H418.6C418.624 287.98 418.896 287.284 419.416 286.804C419.944 286.316 420.612 286.072 421.42 286.072C422.292 286.072 422.972 286.312 423.46 286.792C423.956 287.272 424.204 287.912 424.204 288.712C424.204 289.288 424.056 289.844 423.76 290.38C423.472 290.908 423.124 291.384 422.716 291.808C422.316 292.224 421.804 292.708 421.18 293.26L420.64 293.74H424.444V294.88H418.612V293.884L419.476 293.14ZM431.286 287.428H427.266V289.816C427.434 289.592 427.682 289.404 428.01 289.252C428.346 289.1 428.702 289.024 429.078 289.024C429.75 289.024 430.294 289.168 430.71 289.456C431.134 289.744 431.434 290.108 431.61 290.548C431.794 290.988 431.886 291.452 431.886 291.94C431.886 292.532 431.77 293.06 431.538 293.524C431.314 293.98 430.974 294.34 430.518 294.604C430.07 294.868 429.518 295 428.862 295C427.99 295 427.29 294.784 426.762 294.352C426.234 293.92 425.918 293.348 425.814 292.636H427.146C427.234 293.012 427.43 293.312 427.734 293.536C428.038 293.752 428.418 293.86 428.874 293.86C429.442 293.86 429.866 293.688 430.146 293.344C430.434 293 430.578 292.544 430.578 291.976C430.578 291.4 430.434 290.96 430.146 290.656C429.858 290.344 429.434 290.188 428.874 290.188C428.482 290.188 428.15 290.288 427.878 290.488C427.614 290.68 427.422 290.944 427.302 291.28H426.006V286.228H431.286V287.428ZM445.391 286.66V295H444.023V289.288L441.479 295H440.531L437.975 289.288V295H436.607V286.66H438.083L441.011 293.2L443.927 286.66H445.391ZM446.733 291.664C446.733 291 446.869 290.412 447.141 289.9C447.421 289.388 447.797 288.992 448.269 288.712C448.749 288.424 449.277 288.28 449.853 288.28C450.373 288.28 450.825 288.384 451.209 288.592C451.601 288.792 451.913 289.044 452.145 289.348V288.388H453.525V295H452.145V294.016C451.913 294.328 451.597 294.588 451.197 294.796C450.797 295.004 450.341 295.108 449.829 295.108C449.261 295.108 448.741 294.964 448.269 294.676C447.797 294.38 447.421 293.972 447.141 293.452C446.869 292.924 446.733 292.328 446.733 291.664ZM452.145 291.688C452.145 291.232 452.049 290.836 451.857 290.5C451.673 290.164 451.429 289.908 451.125 289.732C450.821 289.556 450.493 289.468 450.141 289.468C449.789 289.468 449.461 289.556 449.157 289.732C448.853 289.9 448.605 290.152 448.413 290.488C448.229 290.816 448.137 291.208 448.137 291.664C448.137 292.12 448.229 292.52 448.413 292.864C448.605 293.208 448.853 293.472 449.157 293.656C449.469 293.832 449.797 293.92 450.141 293.92C450.493 293.92 450.821 293.832 451.125 293.656C451.429 293.48 451.673 293.224 451.857 292.888C452.049 292.544 452.145 292.144 452.145 291.688ZM461.274 288.388L457.218 298.108H455.802L457.146 294.892L454.542 288.388H456.066L457.926 293.428L459.858 288.388H461.274Z" fill="#999DA9"/>
    <path d="M492.696 288.412C492.744 287.668 493.028 287.088 493.548 286.672C494.076 286.256 494.748 286.048 495.564 286.048C496.124 286.048 496.608 286.148 497.016 286.348C497.424 286.548 497.732 286.82 497.94 287.164C498.148 287.508 498.252 287.896 498.252 288.328C498.252 288.824 498.12 289.248 497.856 289.6C497.592 289.952 497.276 290.188 496.908 290.308V290.356C497.38 290.5 497.748 290.764 498.012 291.148C498.276 291.524 498.408 292.008 498.408 292.6C498.408 293.072 498.3 293.492 498.084 293.86C497.868 294.228 497.548 294.52 497.124 294.736C496.7 294.944 496.192 295.048 495.6 295.048C494.736 295.048 494.024 294.828 493.464 294.388C492.912 293.94 492.616 293.3 492.576 292.468H493.896C493.928 292.892 494.092 293.24 494.388 293.512C494.684 293.776 495.084 293.908 495.588 293.908C496.076 293.908 496.452 293.776 496.716 293.512C496.98 293.24 497.112 292.892 497.112 292.468C497.112 291.908 496.932 291.512 496.572 291.28C496.22 291.04 495.676 290.92 494.94 290.92H494.628V289.792H494.952C495.6 289.784 496.092 289.676 496.428 289.468C496.772 289.26 496.944 288.932 496.944 288.484C496.944 288.1 496.82 287.796 496.572 287.572C496.324 287.34 495.972 287.224 495.516 287.224C495.068 287.224 494.72 287.34 494.472 287.572C494.224 287.796 494.076 288.076 494.028 288.412H492.696ZM499.845 290.512C499.845 289.128 500.077 288.048 500.541 287.272C501.013 286.488 501.821 286.096 502.965 286.096C504.109 286.096 504.913 286.488 505.377 287.272C505.849 288.048 506.085 289.128 506.085 290.512C506.085 291.912 505.849 293.008 505.377 293.8C504.913 294.584 504.109 294.976 502.965 294.976C501.821 294.976 501.013 294.584 500.541 293.8C500.077 293.008 499.845 291.912 499.845 290.512ZM504.741 290.512C504.741 289.864 504.697 289.316 504.609 288.868C504.529 288.42 504.361 288.056 504.105 287.776C503.849 287.488 503.469 287.344 502.965 287.344C502.461 287.344 502.081 287.488 501.825 287.776C501.569 288.056 501.397 288.42 501.309 288.868C501.229 289.316 501.189 289.864 501.189 290.512C501.189 291.184 501.229 291.748 501.309 292.204C501.389 292.66 501.557 293.028 501.813 293.308C502.077 293.588 502.461 293.728 502.965 293.728C503.469 293.728 503.849 293.588 504.105 293.308C504.369 293.028 504.541 292.66 504.621 292.204C504.701 291.748 504.741 291.184 504.741 290.512ZM519.614 286.66V295H518.246V289.288L515.702 295H514.754L512.198 289.288V295H510.83V286.66H512.306L515.234 293.2L518.15 286.66H519.614ZM520.956 291.664C520.956 291 521.092 290.412 521.364 289.9C521.644 289.388 522.02 288.992 522.492 288.712C522.972 288.424 523.5 288.28 524.076 288.28C524.596 288.28 525.048 288.384 525.432 288.592C525.824 288.792 526.136 289.044 526.368 289.348V288.388H527.748V295H526.368V294.016C526.136 294.328 525.82 294.588 525.42 294.796C525.02 295.004 524.564 295.108 524.052 295.108C523.484 295.108 522.964 294.964 522.492 294.676C522.02 294.38 521.644 293.972 521.364 293.452C521.092 292.924 520.956 292.328 520.956 291.664ZM526.368 291.688C526.368 291.232 526.272 290.836 526.08 290.5C525.896 290.164 525.652 289.908 525.348 289.732C525.044 289.556 524.716 289.468 524.364 289.468C524.012 289.468 523.684 289.556 523.38 289.732C523.076 289.9 522.828 290.152 522.636 290.488C522.452 290.816 522.36 291.208 522.36 291.664C522.36 292.12 522.452 292.52 522.636 292.864C522.828 293.208 523.076 293.472 523.38 293.656C523.692 293.832 524.02 293.92 524.364 293.92C524.716 293.92 525.044 293.832 525.348 293.656C525.652 293.48 525.896 293.224 526.08 292.888C526.272 292.544 526.368 292.144 526.368 291.688ZM535.497 288.388L531.441 298.108H530.025L531.369 294.892L528.765 288.388H530.289L532.149 293.428L534.081 288.388H535.497Z" fill="#999DA9"/>
    <path d="M56.5 276L88.3874 257.641C89.1261 257.215 89.8074 256.697 90.4147 256.099L154.394 193.089C155.127 192.367 155.967 191.763 156.885 191.297L217.95 160.302C220.23 159.145 222.866 158.905 225.317 159.631L282.843 176.676C286.594 177.787 290.649 176.609 293.221 173.66L364 92.5L433.645 29.5798C435.482 27.9193 437.871 27 440.348 27H554" stroke="#9C9EAB" stroke-width="2"/>
</svg>