<svg width="32" height="28" viewBox="0 0 32 28" fill="none" xmlns="http://www.w3.org/2000/svg">
    <path d="M19.75 20.25V23.375C19.75 24.2038 19.4208 24.9987 18.8347 25.5847C18.2487 26.1708 17.4538 26.5 16.625 26.5H4.125C3.2962 26.5 2.50134 26.1708 1.91529 25.5847C1.32924 24.9987 1 24.2038 1 23.375V4.625C1 3.7962 1.32924 3.00134 1.91529 2.41529C2.50134 1.82924 3.2962 1.5 4.125 1.5H16C17.7258 1.5 19.75 2.89922 19.75 4.625V7.75M24.75 20.25L31 14L24.75 7.75M9.75 14H29.75" stroke="white" stroke-width="2" stroke-linecap="round" stroke-linejoin="round"/>
</svg>