<svg width="21" height="21" viewBox="0 0 21 21" fill="none" xmlns="http://www.w3.org/2000/svg">
    <path d="M10.5 0.446289C4.8999 0.446289 0.34375 5.00244 0.34375 10.6025C0.34375 16.2026 4.8999 20.7588 10.5 20.7588C16.1001 20.7588 20.6562 16.2026 20.6562 10.6025C20.6562 5.00244 16.1001 0.446289 10.5 0.446289ZM14.4062 11.3838H11.2812V14.5088C11.2812 14.716 11.1989 14.9147 11.0524 15.0612C10.9059 15.2077 10.7072 15.29 10.5 15.29C10.2928 15.29 10.0941 15.2077 9.94757 15.0612C9.80106 14.9147 9.71875 14.716 9.71875 14.5088V11.3838H6.59375C6.38655 11.3838 6.18784 11.3015 6.04132 11.155C5.89481 11.0085 5.8125 10.8097 5.8125 10.6025C5.8125 10.3953 5.89481 10.1966 6.04132 10.0501C6.18784 9.9036 6.38655 9.82129 6.59375 9.82129H9.71875V6.69629C9.71875 6.48909 9.80106 6.29037 9.94757 6.14386C10.0941 5.99735 10.2928 5.91504 10.5 5.91504C10.7072 5.91504 10.9059 5.99735 11.0524 6.14386C11.1989 6.29037 11.2812 6.48909 11.2812 6.69629V9.82129H14.4062C14.6135 9.82129 14.8122 9.9036 14.9587 10.0501C15.1052 10.1966 15.1875 10.3953 15.1875 10.6025C15.1875 10.8097 15.1052 11.0085 14.9587 11.155C14.8122 11.3015 14.6135 11.3838 14.4062 11.3838Z" fill="#9C9EAB"/>
</svg>