<svg width="21" height="21" viewBox="0 0 21 21" fill="none" xmlns="http://www.w3.org/2000/svg">
    <path d="M20.6562 19.7493L14.5977 13.4994C15.574 12.1155 16.0993 10.4476 16.0977 8.73606C16.0977 4.25631 12.564 0.611572 8.2207 0.611572C3.87744 0.611572 0.34375 4.25631 0.34375 8.73606C0.34375 13.2158 3.87744 16.8606 8.2207 16.8606C9.88008 16.8622 11.4971 16.3205 12.8389 15.3134L18.8984 21.5624L20.6562 19.7493ZM8.2207 14.2946C7.15469 14.2947 6.11259 13.9687 5.22619 13.3579C4.33979 12.7471 3.64891 11.8789 3.24092 10.8631C2.83293 9.84734 2.72616 8.72956 2.9341 7.65117C3.14205 6.57278 3.65537 5.58221 4.40916 4.80474C5.16294 4.02726 6.12333 3.49781 7.16887 3.28333C8.2144 3.06885 9.29812 3.17898 10.283 3.59979C11.2678 4.0206 12.1096 4.73319 12.7017 5.64745C13.2939 6.5617 13.61 7.63655 13.6099 8.73606C13.6082 10.2097 13.0399 11.6226 12.0296 12.6646C11.0193 13.7067 9.64948 14.2928 8.2207 14.2946Z" fill="#9C9EAB"/>
</svg>